<?xml version="1.0" encoding="UTF-8"?>
<svg version="1.1" xmlns="http://www.w3.org/2000/svg" width="512" height="512">
<path d="M0 0 C4.5815323 2.17019951 6.89150061 4.43064252 9 9 C9.40390175 12.22992727 9.34933902 15.42513209 9.29296875 18.67578125 C9.28872391 19.6009404 9.28447906 20.52609955 9.28010559 21.47929382 C9.26335993 24.4239963 9.22571522 27.3680056 9.1875 30.3125 C9.17244785 32.31314113 9.15876037 34.31379303 9.14648438 36.31445312 C9.11602609 41.21011505 9.05729706 46.10428483 9 51 C18.9 51 28.8 51 39 51 C38.95359375 48.03773437 38.9071875 45.07546875 38.859375 42.0234375 C38.82815087 39.14406039 38.80387934 36.26470237 38.78027344 33.38525391 C38.76019831 31.38907382 38.73293211 29.39295225 38.69824219 27.39697266 C38.64954343 24.5223138 38.62699014 21.6484346 38.609375 18.7734375 C38.58872986 17.88570648 38.56808472 16.99797546 38.54681396 16.08334351 C38.54482316 10.54552669 39.28297961 7.38258961 43 3 C48.22259857 -1.05630398 53.65340142 -0.77397544 60 0 C64.5815323 2.17019951 66.89150061 4.43064252 69 9 C69.40390175 12.22992727 69.34933902 15.42513209 69.29296875 18.67578125 C69.28872391 19.6009404 69.28447906 20.52609955 69.28010559 21.47929382 C69.26335993 24.4239963 69.22571522 27.3680056 69.1875 30.3125 C69.17244785 32.31314113 69.15876037 34.31379303 69.14648438 36.31445312 C69.11602609 41.21011505 69.05729706 46.10428483 69 51 C78.9 51 88.8 51 99 51 C98.95359375 48.03773437 98.9071875 45.07546875 98.859375 42.0234375 C98.82815087 39.14406039 98.80387934 36.26470237 98.78027344 33.38525391 C98.76019831 31.38907382 98.73293211 29.39295225 98.69824219 27.39697266 C98.64954343 24.5223138 98.62699014 21.6484346 98.609375 18.7734375 C98.58872986 17.88570648 98.56808472 16.99797546 98.54681396 16.08334351 C98.54482316 10.54552669 99.28297961 7.38258961 103 3 C108.22259857 -1.05630398 113.65340142 -0.77397544 120 0 C124.5815323 2.17019951 126.89150061 4.43064252 129 9 C129.40390175 12.22992727 129.34933902 15.42513209 129.29296875 18.67578125 C129.28872391 19.6009404 129.28447906 20.52609955 129.28010559 21.47929382 C129.26335993 24.4239963 129.22571522 27.3680056 129.1875 30.3125 C129.17244785 32.31314113 129.15876037 34.31379303 129.14648438 36.31445312 C129.11602609 41.21011505 129.05729706 46.10428483 129 51 C138.9 51 148.8 51 159 51 C158.95359375 48.03773437 158.9071875 45.07546875 158.859375 42.0234375 C158.82815087 39.14406039 158.80387934 36.26470237 158.78027344 33.38525391 C158.76019831 31.38907382 158.73293211 29.39295225 158.69824219 27.39697266 C158.64954343 24.5223138 158.62699014 21.6484346 158.609375 18.7734375 C158.58872986 17.88570648 158.56808472 16.99797546 158.54681396 16.08334351 C158.54482316 10.54552669 159.28297961 7.38258961 163 3 C168.22259857 -1.05630398 173.65340142 -0.77397544 180 0 C184.5815323 2.17019951 186.89150061 4.43064252 189 9 C189.40390175 12.22992727 189.34933902 15.42513209 189.29296875 18.67578125 C189.28872391 19.6009404 189.28447906 20.52609955 189.28010559 21.47929382 C189.26335993 24.4239963 189.22571522 27.3680056 189.1875 30.3125 C189.17244785 32.31314113 189.15876037 34.31379303 189.14648438 36.31445312 C189.11602609 41.21011505 189.05729706 46.10428483 189 51 C198.9 51 208.8 51 219 51 C218.95359375 48.03773437 218.9071875 45.07546875 218.859375 42.0234375 C218.82815087 39.14406039 218.80387934 36.26470237 218.78027344 33.38525391 C218.76019831 31.38907382 218.73293211 29.39295225 218.69824219 27.39697266 C218.64954343 24.5223138 218.62699014 21.6484346 218.609375 18.7734375 C218.58872986 17.88570648 218.56808472 16.99797546 218.54681396 16.08334351 C218.54482316 10.54552669 219.28297961 7.38258961 223 3 C228.22259857 -1.05630398 233.65340142 -0.77397544 240 0 C244.5815323 2.17019951 246.89150061 4.43064252 249 9 C249.40390175 12.22992727 249.34933902 15.42513209 249.29296875 18.67578125 C249.28872391 19.6009404 249.28447906 20.52609955 249.28010559 21.47929382 C249.26335993 24.4239963 249.22571522 27.3680056 249.1875 30.3125 C249.17244785 32.31314113 249.15876037 34.31379303 249.14648438 36.31445312 C249.11602609 41.21011505 249.05729706 46.10428483 249 51 C258.9 51 268.8 51 279 51 C278.95359375 48.03773437 278.9071875 45.07546875 278.859375 42.0234375 C278.82815087 39.14406039 278.80387934 36.26470237 278.78027344 33.38525391 C278.76019831 31.38907382 278.73293211 29.39295225 278.69824219 27.39697266 C278.64954343 24.5223138 278.62699014 21.6484346 278.609375 18.7734375 C278.58872986 17.88570648 278.56808472 16.99797546 278.54681396 16.08334351 C278.54482316 10.54552669 279.28297961 7.38258961 283 3 C288.22259857 -1.05630398 293.65340142 -0.77397544 300 0 C304.5815323 2.17019951 306.89150061 4.43064252 309 9 C309.40390175 12.22992727 309.34933902 15.42513209 309.29296875 18.67578125 C309.28872391 19.6009404 309.28447906 20.52609955 309.28010559 21.47929382 C309.26335993 24.4239963 309.22571522 27.3680056 309.1875 30.3125 C309.17244785 32.31314113 309.15876037 34.31379303 309.14648438 36.31445312 C309.11346983 41.20990107 309.06171575 46.10483315 309 51 C310.3614917 50.9685791 310.3614917 50.9685791 311.75048828 50.93652344 C315.13877642 50.86809067 318.5263235 50.81807705 321.91503906 50.78027344 C323.37772252 50.76023668 324.84032666 50.73299896 326.30273438 50.69824219 C328.4129601 50.64936775 330.52212136 50.62695341 332.6328125 50.609375 C334.53377686 50.5779541 334.53377686 50.5779541 336.47314453 50.54589844 C341.64431403 51.21171425 344.60547635 53.27577831 347.85668945 57.2956543 C349.32679521 60.77298964 349.33952736 63.49828375 349.29296875 67.26953125 C349.28872391 67.95053391 349.28447906 68.63153656 349.28010559 69.33317566 C349.2634061 71.49336459 349.22577312 73.65259642 349.1875 75.8125 C349.17244174 77.28318958 349.15875534 78.75389389 349.14648438 80.22460938 C349.11353214 83.81671357 349.06181173 87.40826326 349 91 C350.24088379 90.97905273 351.48176758 90.95810547 352.76025391 90.93652344 C357.37829989 90.8639463 361.99629577 90.81813579 366.61474609 90.78027344 C368.61092618 90.76019831 370.60704775 90.73293211 372.60302734 90.69824219 C375.4776862 90.64954343 378.3515654 90.62699014 381.2265625 90.609375 C382.55815903 90.57840729 382.55815903 90.57840729 383.91665649 90.54681396 C389.45447331 90.54482316 392.61741039 91.28297961 397 95 C401.05630398 100.22259857 400.77397544 105.65340142 400 112 C397.82980049 116.5815323 395.56935748 118.89150061 391 121 C387.77007273 121.40390175 384.57486791 121.34933902 381.32421875 121.29296875 C380.3990596 121.28872391 379.47390045 121.28447906 378.52070618 121.28010559 C375.5760037 121.26335993 372.6319944 121.22571522 369.6875 121.1875 C367.68685887 121.17244785 365.68620697 121.15876037 363.68554688 121.14648438 C358.78988495 121.11602609 353.89571517 121.05729706 349 121 C349 130.9 349 140.8 349 151 C351.96226562 150.95359375 354.92453125 150.9071875 357.9765625 150.859375 C360.85593961 150.82815087 363.73529763 150.80387934 366.61474609 150.78027344 C368.61092618 150.76019831 370.60704775 150.73293211 372.60302734 150.69824219 C375.4776862 150.64954343 378.3515654 150.62699014 381.2265625 150.609375 C382.55815903 150.57840729 382.55815903 150.57840729 383.91665649 150.54681396 C389.45447331 150.54482316 392.61741039 151.28297961 397 155 C401.05630398 160.22259857 400.77397544 165.65340142 400 172 C397.82980049 176.5815323 395.56935748 178.89150061 391 181 C387.77007273 181.40390175 384.57486791 181.34933902 381.32421875 181.29296875 C380.3990596 181.28872391 379.47390045 181.28447906 378.52070618 181.28010559 C375.5760037 181.26335993 372.6319944 181.22571522 369.6875 181.1875 C367.68685887 181.17244785 365.68620697 181.15876037 363.68554688 181.14648438 C358.78988495 181.11602609 353.89571517 181.05729706 349 181 C349 190.9 349 200.8 349 211 C351.96226562 210.95359375 354.92453125 210.9071875 357.9765625 210.859375 C360.85593961 210.82815087 363.73529763 210.80387934 366.61474609 210.78027344 C368.61092618 210.76019831 370.60704775 210.73293211 372.60302734 210.69824219 C375.4776862 210.64954343 378.3515654 210.62699014 381.2265625 210.609375 C382.55815903 210.57840729 382.55815903 210.57840729 383.91665649 210.54681396 C389.45447331 210.54482316 392.61741039 211.28297961 397 215 C401.05630398 220.22259857 400.77397544 225.65340142 400 232 C397.82980049 236.5815323 395.56935748 238.89150061 391 241 C387.77007273 241.40390175 384.57486791 241.34933902 381.32421875 241.29296875 C380.3990596 241.28872391 379.47390045 241.28447906 378.52070618 241.28010559 C375.5760037 241.26335993 372.6319944 241.22571522 369.6875 241.1875 C367.68685887 241.17244785 365.68620697 241.15876037 363.68554688 241.14648438 C358.78988495 241.11602609 353.89571517 241.05729706 349 241 C349 250.9 349 260.8 349 271 C351.96226562 270.95359375 354.92453125 270.9071875 357.9765625 270.859375 C360.85593961 270.82815087 363.73529763 270.80387934 366.61474609 270.78027344 C368.61092618 270.76019831 370.60704775 270.73293211 372.60302734 270.69824219 C375.4776862 270.64954343 378.3515654 270.62699014 381.2265625 270.609375 C382.55815903 270.57840729 382.55815903 270.57840729 383.91665649 270.54681396 C389.45447331 270.54482316 392.61741039 271.28297961 397 275 C401.05630398 280.22259857 400.77397544 285.65340142 400 292 C397.82980049 296.5815323 395.56935748 298.89150061 391 301 C387.77007273 301.40390175 384.57486791 301.34933902 381.32421875 301.29296875 C380.3990596 301.28872391 379.47390045 301.28447906 378.52070618 301.28010559 C375.5760037 301.26335993 372.6319944 301.22571522 369.6875 301.1875 C367.68685887 301.17244785 365.68620697 301.15876037 363.68554688 301.14648438 C358.78988495 301.11602609 353.89571517 301.05729706 349 301 C349 310.9 349 320.8 349 331 C351.96226562 330.95359375 354.92453125 330.9071875 357.9765625 330.859375 C360.85593961 330.82815087 363.73529763 330.80387934 366.61474609 330.78027344 C368.61092618 330.76019831 370.60704775 330.73293211 372.60302734 330.69824219 C375.4776862 330.64954343 378.3515654 330.62699014 381.2265625 330.609375 C382.55815903 330.57840729 382.55815903 330.57840729 383.91665649 330.54681396 C389.45447331 330.54482316 392.61741039 331.28297961 397 335 C401.05630398 340.22259857 400.77397544 345.65340142 400 352 C397.82980049 356.5815323 395.56935748 358.89150061 391 361 C387.77007273 361.40390175 384.57486791 361.34933902 381.32421875 361.29296875 C380.3990596 361.28872391 379.47390045 361.28447906 378.52070618 361.28010559 C375.5760037 361.26335993 372.6319944 361.22571522 369.6875 361.1875 C367.68685887 361.17244785 365.68620697 361.15876037 363.68554688 361.14648438 C358.78988495 361.11602609 353.89571517 361.05729706 349 361 C349 370.9 349 380.8 349 391 C351.96226562 390.95359375 354.92453125 390.9071875 357.9765625 390.859375 C360.85593961 390.82815087 363.73529763 390.80387934 366.61474609 390.78027344 C368.61092618 390.76019831 370.60704775 390.73293211 372.60302734 390.69824219 C375.4776862 390.64954343 378.3515654 390.62699014 381.2265625 390.609375 C382.55815903 390.57840729 382.55815903 390.57840729 383.91665649 390.54681396 C389.45447331 390.54482316 392.61741039 391.28297961 397 395 C401.05630398 400.22259857 400.77397544 405.65340142 400 412 C397.82980049 416.5815323 395.56935748 418.89150061 391 421 C387.77007273 421.40390175 384.57486791 421.34933902 381.32421875 421.29296875 C380.3990596 421.28872391 379.47390045 421.28447906 378.52070618 421.28010559 C375.5760037 421.26335993 372.6319944 421.22571522 369.6875 421.1875 C367.68685887 421.17244785 365.68620697 421.15876037 363.68554688 421.14648438 C358.79009893 421.11346983 353.89516685 421.06171575 349 421 C349.02094727 421.90766113 349.04189453 422.81532227 349.06347656 423.75048828 C349.13190933 427.13877642 349.18192295 430.5263235 349.21972656 433.91503906 C349.23976332 435.37772252 349.26700104 436.84032666 349.30175781 438.30273438 C349.35063225 440.4129601 349.37304659 442.52212136 349.390625 444.6328125 C349.41157227 445.90012207 349.43251953 447.16743164 349.45410156 448.47314453 C348.78828575 453.64431403 346.72422169 456.60547635 342.7043457 459.85668945 C339.22701036 461.32679521 336.50171625 461.33952736 332.73046875 461.29296875 C332.04946609 461.28872391 331.36846344 461.28447906 330.66682434 461.28010559 C328.50663541 461.2634061 326.34740358 461.22577312 324.1875 461.1875 C322.71681042 461.17244174 321.24610611 461.15875534 319.77539062 461.14648438 C316.18328643 461.11353214 312.59173674 461.06181173 309 461 C309.02094727 462.24088379 309.04189453 463.48176758 309.06347656 464.76025391 C309.1360537 469.37829989 309.18186421 473.99629577 309.21972656 478.61474609 C309.23980169 480.61092618 309.26706789 482.60704775 309.30175781 484.60302734 C309.35045657 487.4776862 309.37300986 490.3515654 309.390625 493.2265625 C309.41127014 494.11429352 309.43191528 495.00202454 309.45318604 495.91665649 C309.45517684 501.45447331 308.71702039 504.61741039 305 509 C299.77740143 513.05630398 294.34659858 512.77397544 288 512 C283.4184677 509.82980049 281.10849939 507.56935748 279 503 C278.59609825 499.77007273 278.65066098 496.57486791 278.70703125 493.32421875 C278.71127609 492.3990596 278.71552094 491.47390045 278.71989441 490.52070618 C278.73664007 487.5760037 278.77428478 484.6319944 278.8125 481.6875 C278.82755215 479.68685887 278.84123963 477.68620697 278.85351562 475.68554688 C278.88397391 470.78988495 278.94270294 465.89571517 279 461 C269.1 461 259.2 461 249 461 C249.04640625 463.96226562 249.0928125 466.92453125 249.140625 469.9765625 C249.17184913 472.85593961 249.19612066 475.73529763 249.21972656 478.61474609 C249.23980169 480.61092618 249.26706789 482.60704775 249.30175781 484.60302734 C249.35045657 487.4776862 249.37300986 490.3515654 249.390625 493.2265625 C249.41127014 494.11429352 249.43191528 495.00202454 249.45318604 495.91665649 C249.45517684 501.45447331 248.71702039 504.61741039 245 509 C239.77740143 513.05630398 234.34659858 512.77397544 228 512 C223.4184677 509.82980049 221.10849939 507.56935748 219 503 C218.59609825 499.77007273 218.65066098 496.57486791 218.70703125 493.32421875 C218.71127609 492.3990596 218.71552094 491.47390045 218.71989441 490.52070618 C218.73664007 487.5760037 218.77428478 484.6319944 218.8125 481.6875 C218.82755215 479.68685887 218.84123963 477.68620697 218.85351562 475.68554688 C218.88397391 470.78988495 218.94270294 465.89571517 219 461 C209.1 461 199.2 461 189 461 C189.04640625 463.96226562 189.0928125 466.92453125 189.140625 469.9765625 C189.17184913 472.85593961 189.19612066 475.73529763 189.21972656 478.61474609 C189.23980169 480.61092618 189.26706789 482.60704775 189.30175781 484.60302734 C189.35045657 487.4776862 189.37300986 490.3515654 189.390625 493.2265625 C189.41127014 494.11429352 189.43191528 495.00202454 189.45318604 495.91665649 C189.45517684 501.45447331 188.71702039 504.61741039 185 509 C179.77740143 513.05630398 174.34659858 512.77397544 168 512 C163.4184677 509.82980049 161.10849939 507.56935748 159 503 C158.59609825 499.77007273 158.65066098 496.57486791 158.70703125 493.32421875 C158.71127609 492.3990596 158.71552094 491.47390045 158.71989441 490.52070618 C158.73664007 487.5760037 158.77428478 484.6319944 158.8125 481.6875 C158.82755215 479.68685887 158.84123963 477.68620697 158.85351562 475.68554688 C158.88397391 470.78988495 158.94270294 465.89571517 159 461 C149.1 461 139.2 461 129 461 C129.04640625 463.96226562 129.0928125 466.92453125 129.140625 469.9765625 C129.17184913 472.85593961 129.19612066 475.73529763 129.21972656 478.61474609 C129.23980169 480.61092618 129.26706789 482.60704775 129.30175781 484.60302734 C129.35045657 487.4776862 129.37300986 490.3515654 129.390625 493.2265625 C129.41127014 494.11429352 129.43191528 495.00202454 129.45318604 495.91665649 C129.45517684 501.45447331 128.71702039 504.61741039 125 509 C119.77740143 513.05630398 114.34659858 512.77397544 108 512 C103.4184677 509.82980049 101.10849939 507.56935748 99 503 C98.59609825 499.77007273 98.65066098 496.57486791 98.70703125 493.32421875 C98.71127609 492.3990596 98.71552094 491.47390045 98.71989441 490.52070618 C98.73664007 487.5760037 98.77428478 484.6319944 98.8125 481.6875 C98.82755215 479.68685887 98.84123963 477.68620697 98.85351562 475.68554688 C98.88397391 470.78988495 98.94270294 465.89571517 99 461 C89.1 461 79.2 461 69 461 C69.04640625 463.96226562 69.0928125 466.92453125 69.140625 469.9765625 C69.17184913 472.85593961 69.19612066 475.73529763 69.21972656 478.61474609 C69.23980169 480.61092618 69.26706789 482.60704775 69.30175781 484.60302734 C69.35045657 487.4776862 69.37300986 490.3515654 69.390625 493.2265625 C69.41127014 494.11429352 69.43191528 495.00202454 69.45318604 495.91665649 C69.45517684 501.45447331 68.71702039 504.61741039 65 509 C59.77740143 513.05630398 54.34659858 512.77397544 48 512 C43.4184677 509.82980049 41.10849939 507.56935748 39 503 C38.59609825 499.77007273 38.65066098 496.57486791 38.70703125 493.32421875 C38.71127609 492.3990596 38.71552094 491.47390045 38.71989441 490.52070618 C38.73664007 487.5760037 38.77428478 484.6319944 38.8125 481.6875 C38.82755215 479.68685887 38.84123963 477.68620697 38.85351562 475.68554688 C38.88397391 470.78988495 38.94270294 465.89571517 39 461 C29.1 461 19.2 461 9 461 C9.04640625 463.96226562 9.0928125 466.92453125 9.140625 469.9765625 C9.17184913 472.85593961 9.19612066 475.73529763 9.21972656 478.61474609 C9.23980169 480.61092618 9.26706789 482.60704775 9.30175781 484.60302734 C9.35045657 487.4776862 9.37300986 490.3515654 9.390625 493.2265625 C9.41127014 494.11429352 9.43191528 495.00202454 9.45318604 495.91665649 C9.45517684 501.45447331 8.71702039 504.61741039 5 509 C-0.22259857 513.05630398 -5.65340142 512.77397544 -12 512 C-16.5815323 509.82980049 -18.89150061 507.56935748 -21 503 C-21.40390175 499.77007273 -21.34933902 496.57486791 -21.29296875 493.32421875 C-21.28872391 492.3990596 -21.28447906 491.47390045 -21.28010559 490.52070618 C-21.26335993 487.5760037 -21.22571522 484.6319944 -21.1875 481.6875 C-21.17244785 479.68685887 -21.15876037 477.68620697 -21.14648438 475.68554688 C-21.11346983 470.79009893 -21.06171575 465.89516685 -21 461 C-21.90766113 461.02094727 -22.81532227 461.04189453 -23.75048828 461.06347656 C-27.13877642 461.13190933 -30.5263235 461.18192295 -33.91503906 461.21972656 C-35.37772252 461.23976332 -36.84032666 461.26700104 -38.30273438 461.30175781 C-40.4129601 461.35063225 -42.52212136 461.37304659 -44.6328125 461.390625 C-45.90012207 461.41157227 -47.16743164 461.43251953 -48.47314453 461.45410156 C-53.64431403 460.78828575 -56.60547635 458.72422169 -59.85668945 454.7043457 C-61.32679521 451.22701036 -61.33952736 448.50171625 -61.29296875 444.73046875 C-61.28872391 444.04946609 -61.28447906 443.36846344 -61.28010559 442.66682434 C-61.2634061 440.50663541 -61.22577312 438.34740358 -61.1875 436.1875 C-61.17244174 434.71681042 -61.15875534 433.24610611 -61.14648438 431.77539062 C-61.11353214 428.18328643 -61.06181173 424.59173674 -61 421 C-62.24088379 421.02094727 -63.48176758 421.04189453 -64.76025391 421.06347656 C-69.37829989 421.1360537 -73.99629577 421.18186421 -78.61474609 421.21972656 C-80.61092618 421.23980169 -82.60704775 421.26706789 -84.60302734 421.30175781 C-87.4776862 421.35045657 -90.3515654 421.37300986 -93.2265625 421.390625 C-94.55815903 421.42159271 -94.55815903 421.42159271 -95.91665649 421.45318604 C-101.45447331 421.45517684 -104.61741039 420.71702039 -109 417 C-113.05630398 411.77740143 -112.77397544 406.34659858 -112 400 C-109.82980049 395.4184677 -107.56935748 393.10849939 -103 391 C-99.77007273 390.59609825 -96.57486791 390.65066098 -93.32421875 390.70703125 C-92.3990596 390.71127609 -91.47390045 390.71552094 -90.52070618 390.71989441 C-87.5760037 390.73664007 -84.6319944 390.77428478 -81.6875 390.8125 C-79.68685887 390.82755215 -77.68620697 390.84123963 -75.68554688 390.85351562 C-70.78988495 390.88397391 -65.89571517 390.94270294 -61 391 C-61 381.1 -61 371.2 -61 361 C-63.96226563 361.04640625 -66.92453125 361.0928125 -69.9765625 361.140625 C-72.85593961 361.17184913 -75.73529763 361.19612066 -78.61474609 361.21972656 C-80.61092618 361.23980169 -82.60704775 361.26706789 -84.60302734 361.30175781 C-87.4776862 361.35045657 -90.3515654 361.37300986 -93.2265625 361.390625 C-94.55815903 361.42159271 -94.55815903 361.42159271 -95.91665649 361.45318604 C-101.45447331 361.45517684 -104.61741039 360.71702039 -109 357 C-113.05630398 351.77740143 -112.77397544 346.34659858 -112 340 C-109.82980049 335.4184677 -107.56935748 333.10849939 -103 331 C-99.77007273 330.59609825 -96.57486791 330.65066098 -93.32421875 330.70703125 C-92.3990596 330.71127609 -91.47390045 330.71552094 -90.52070618 330.71989441 C-87.5760037 330.73664007 -84.6319944 330.77428478 -81.6875 330.8125 C-79.68685887 330.82755215 -77.68620697 330.84123963 -75.68554688 330.85351562 C-70.78988495 330.88397391 -65.89571517 330.94270294 -61 331 C-61 321.1 -61 311.2 -61 301 C-63.96226563 301.04640625 -66.92453125 301.0928125 -69.9765625 301.140625 C-72.85593961 301.17184913 -75.73529763 301.19612066 -78.61474609 301.21972656 C-80.61092618 301.23980169 -82.60704775 301.26706789 -84.60302734 301.30175781 C-87.4776862 301.35045657 -90.3515654 301.37300986 -93.2265625 301.390625 C-94.55815903 301.42159271 -94.55815903 301.42159271 -95.91665649 301.45318604 C-101.45447331 301.45517684 -104.61741039 300.71702039 -109 297 C-113.05630398 291.77740143 -112.77397544 286.34659858 -112 280 C-109.82980049 275.4184677 -107.56935748 273.10849939 -103 271 C-99.77007273 270.59609825 -96.57486791 270.65066098 -93.32421875 270.70703125 C-92.3990596 270.71127609 -91.47390045 270.71552094 -90.52070618 270.71989441 C-87.5760037 270.73664007 -84.6319944 270.77428478 -81.6875 270.8125 C-79.68685887 270.82755215 -77.68620697 270.84123963 -75.68554688 270.85351562 C-70.78988495 270.88397391 -65.89571517 270.94270294 -61 271 C-61 261.1 -61 251.2 -61 241 C-63.96226563 241.04640625 -66.92453125 241.0928125 -69.9765625 241.140625 C-72.85593961 241.17184913 -75.73529763 241.19612066 -78.61474609 241.21972656 C-80.61092618 241.23980169 -82.60704775 241.26706789 -84.60302734 241.30175781 C-87.4776862 241.35045657 -90.3515654 241.37300986 -93.2265625 241.390625 C-94.55815903 241.42159271 -94.55815903 241.42159271 -95.91665649 241.45318604 C-101.45447331 241.45517684 -104.61741039 240.71702039 -109 237 C-113.05630398 231.77740143 -112.77397544 226.34659858 -112 220 C-109.82980049 215.4184677 -107.56935748 213.10849939 -103 211 C-99.77007273 210.59609825 -96.57486791 210.65066098 -93.32421875 210.70703125 C-92.3990596 210.71127609 -91.47390045 210.71552094 -90.52070618 210.71989441 C-87.5760037 210.73664007 -84.6319944 210.77428478 -81.6875 210.8125 C-79.68685887 210.82755215 -77.68620697 210.84123963 -75.68554688 210.85351562 C-70.78988495 210.88397391 -65.89571517 210.94270294 -61 211 C-61 201.1 -61 191.2 -61 181 C-63.96226563 181.04640625 -66.92453125 181.0928125 -69.9765625 181.140625 C-72.85593961 181.17184913 -75.73529763 181.19612066 -78.61474609 181.21972656 C-80.61092618 181.23980169 -82.60704775 181.26706789 -84.60302734 181.30175781 C-87.4776862 181.35045657 -90.3515654 181.37300986 -93.2265625 181.390625 C-94.55815903 181.42159271 -94.55815903 181.42159271 -95.91665649 181.45318604 C-101.45447331 181.45517684 -104.61741039 180.71702039 -109 177 C-113.05630398 171.77740143 -112.77397544 166.34659858 -112 160 C-109.82980049 155.4184677 -107.56935748 153.10849939 -103 151 C-99.77007273 150.59609825 -96.57486791 150.65066098 -93.32421875 150.70703125 C-92.3990596 150.71127609 -91.47390045 150.71552094 -90.52070618 150.71989441 C-87.5760037 150.73664007 -84.6319944 150.77428478 -81.6875 150.8125 C-79.68685887 150.82755215 -77.68620697 150.84123963 -75.68554688 150.85351562 C-70.78988495 150.88397391 -65.89571517 150.94270294 -61 151 C-61 141.1 -61 131.2 -61 121 C-63.96226563 121.04640625 -66.92453125 121.0928125 -69.9765625 121.140625 C-72.85593961 121.17184913 -75.73529763 121.19612066 -78.61474609 121.21972656 C-80.61092618 121.23980169 -82.60704775 121.26706789 -84.60302734 121.30175781 C-87.4776862 121.35045657 -90.3515654 121.37300986 -93.2265625 121.390625 C-94.55815903 121.42159271 -94.55815903 121.42159271 -95.91665649 121.45318604 C-101.45447331 121.45517684 -104.61741039 120.71702039 -109 117 C-113.05630398 111.77740143 -112.77397544 106.34659858 -112 100 C-109.82980049 95.4184677 -107.56935748 93.10849939 -103 91 C-99.77007273 90.59609825 -96.57486791 90.65066098 -93.32421875 90.70703125 C-92.3990596 90.71127609 -91.47390045 90.71552094 -90.52070618 90.71989441 C-87.5760037 90.73664007 -84.6319944 90.77428478 -81.6875 90.8125 C-79.68685887 90.82755215 -77.68620697 90.84123963 -75.68554688 90.85351562 C-70.79009893 90.88653017 -65.89516685 90.93828425 -61 91 C-61.02094727 90.09233887 -61.04189453 89.18467773 -61.06347656 88.24951172 C-61.13190933 84.86122358 -61.18192295 81.4736765 -61.21972656 78.08496094 C-61.23976332 76.62227748 -61.26700104 75.15967334 -61.30175781 73.69726562 C-61.35063225 71.5870399 -61.37304659 69.47787864 -61.390625 67.3671875 C-61.41157227 66.09987793 -61.43251953 64.83256836 -61.45410156 63.52685547 C-60.78828575 58.35568597 -58.72422169 55.39452365 -54.7043457 52.14331055 C-51.22701036 50.67320479 -48.50171625 50.66047264 -44.73046875 50.70703125 C-43.70896477 50.71339851 -43.70896477 50.71339851 -42.66682434 50.71989441 C-40.50663541 50.7365939 -38.34740358 50.77422688 -36.1875 50.8125 C-34.71681042 50.82755826 -33.24610611 50.84124466 -31.77539062 50.85351562 C-28.18328643 50.88646786 -24.59173674 50.93818827 -21 51 C-21.0314209 49.13867432 -21.0314209 49.13867432 -21.06347656 47.23974609 C-21.1360537 42.62170011 -21.18186421 38.00370423 -21.21972656 33.38525391 C-21.23980169 31.38907382 -21.26706789 29.39295225 -21.30175781 27.39697266 C-21.35045657 24.5223138 -21.37300986 21.6484346 -21.390625 18.7734375 C-21.41127014 17.88570648 -21.43191528 16.99797546 -21.45318604 16.08334351 C-21.45517684 10.54552669 -20.71702039 7.38258961 -17 3 C-11.77740143 -1.05630398 -6.34659858 -0.77397544 0 0 Z " fill="#7C84E7" transform="translate(112,0)"/>
<path d="M0 0 C4.5815323 2.17019951 6.89150061 4.43064252 9 9 C9.40390175 12.22992727 9.34933902 15.42513209 9.29296875 18.67578125 C9.28872391 19.6009404 9.28447906 20.52609955 9.28010559 21.47929382 C9.26335993 24.4239963 9.22571522 27.3680056 9.1875 30.3125 C9.17244785 32.31314113 9.15876037 34.31379303 9.14648438 36.31445312 C9.11602609 41.21011505 9.05729706 46.10428483 9 51 C18.9 51 28.8 51 39 51 C38.95359375 48.03773437 38.9071875 45.07546875 38.859375 42.0234375 C38.82815087 39.14406039 38.80387934 36.26470237 38.78027344 33.38525391 C38.76019831 31.38907382 38.73293211 29.39295225 38.69824219 27.39697266 C38.64954343 24.5223138 38.62699014 21.6484346 38.609375 18.7734375 C38.58872986 17.88570648 38.56808472 16.99797546 38.54681396 16.08334351 C38.54482316 10.54552669 39.28297961 7.38258961 43 3 C48.22259857 -1.05630398 53.65340142 -0.77397544 60 0 C64.5815323 2.17019951 66.89150061 4.43064252 69 9 C69.40390175 12.22992727 69.34933902 15.42513209 69.29296875 18.67578125 C69.28872391 19.6009404 69.28447906 20.52609955 69.28010559 21.47929382 C69.26335993 24.4239963 69.22571522 27.3680056 69.1875 30.3125 C69.17244785 32.31314113 69.15876037 34.31379303 69.14648438 36.31445312 C69.11602609 41.21011505 69.05729706 46.10428483 69 51 C78.9 51 88.8 51 99 51 C98.95359375 48.03773437 98.9071875 45.07546875 98.859375 42.0234375 C98.82815087 39.14406039 98.80387934 36.26470237 98.78027344 33.38525391 C98.76019831 31.38907382 98.73293211 29.39295225 98.69824219 27.39697266 C98.64954343 24.5223138 98.62699014 21.6484346 98.609375 18.7734375 C98.58872986 17.88570648 98.56808472 16.99797546 98.54681396 16.08334351 C98.54482316 10.54552669 99.28297961 7.38258961 103 3 C108.22259857 -1.05630398 113.65340142 -0.77397544 120 0 C124.5815323 2.17019951 126.89150061 4.43064252 129 9 C129.40390175 12.22992727 129.34933902 15.42513209 129.29296875 18.67578125 C129.28872391 19.6009404 129.28447906 20.52609955 129.28010559 21.47929382 C129.26335993 24.4239963 129.22571522 27.3680056 129.1875 30.3125 C129.17244785 32.31314113 129.15876037 34.31379303 129.14648438 36.31445312 C129.11346983 41.20990107 129.06171575 46.10483315 129 51 C133.95 51 138.9 51 144 51 C144 70.8 144 90.6 144 111 C134.40808594 111.02578125 124.81617188 111.0515625 114.93359375 111.078125 C108.8587035 111.10328993 102.783845 111.12945704 96.70898438 111.16015625 C87.06567603 111.20870193 77.42247328 111.25314332 67.77905273 111.27099609 C60.75560176 111.28401739 53.7323655 111.31099407 46.70903546 111.35461307 C42.99141502 111.37721739 39.27405931 111.39291132 35.55636406 111.39188385 C31.40242593 111.39099763 27.24926754 111.42127227 23.09545898 111.45410156 C21.86762695 111.4490712 20.63979492 111.44404083 19.37475586 111.43885803 C12.76196377 111.51976645 8.21644747 111.74383385 3 116 C-0.64133165 121.43422584 -0.42245407 126.50588109 -0.38095093 132.81077576 C-0.3856309 133.90127183 -0.39031087 134.99176789 -0.39513266 136.1153093 C-0.40710092 139.77027448 -0.39761792 143.424866 -0.38818359 147.07983398 C-0.39224849 149.69987202 -0.3975899 152.31990834 -0.40411377 154.93994141 C-0.41744875 161.31832093 -0.41457431 167.6965945 -0.40587585 174.07497817 C-0.39909818 179.25975749 -0.39818294 184.44450714 -0.4014473 189.62928963 C-0.40213684 190.7365708 -0.40213684 190.7365708 -0.40284032 191.8662213 C-0.40379951 193.36589098 -0.40477215 194.86556066 -0.4057581 196.36523033 C-0.41431145 210.42572815 -0.40447903 224.48616729 -0.388357 238.54665548 C-0.37495664 250.60673527 -0.37727967 262.66672842 -0.39111328 274.72680664 C-0.40717486 288.73575344 -0.41348455 302.74464879 -0.40427649 316.75360352 C-0.40332086 318.24803387 -0.40237775 319.74246424 -0.4014473 321.23689461 C-0.40098447 321.97215714 -0.40052164 322.70741967 -0.40004479 323.46496288 C-0.39745643 328.64197776 -0.40182264 333.81895996 -0.40888596 338.99596977 C-0.41818794 345.96698102 -0.41154653 352.93782598 -0.39420319 359.90882111 C-0.3902344 362.4682367 -0.39137906 365.02766606 -0.39799118 367.58707619 C-0.40618098 371.07898401 -0.39591525 374.57036632 -0.38095093 378.0622406 C-0.38764309 379.07664119 -0.39433526 380.09104177 -0.40123022 381.13618177 C-0.35361623 386.85907907 0.19192507 390.96803813 3 396 C9.06708075 401.08237604 15.45575574 400.57719791 23.09545898 400.54589844 C24.40345963 400.55623611 25.71146027 400.56657379 27.05909729 400.57722473 C30.62890179 400.60499342 34.19835916 400.60849146 37.76825595 400.60750484 C41.50525535 400.61064186 45.24210023 400.63627641 48.97901917 400.65948486 C56.04781111 400.69998822 63.11651094 400.72037218 70.18540102 400.73345876 C79.74292909 400.75232161 89.30029086 400.80240404 98.85770702 400.85070229 C113.90512936 400.92592413 128.95235094 400.95955477 144 401 C144 420.8 144 440.6 144 461 C139.05 461 134.1 461 129 461 C129.02094727 462.24088379 129.04189453 463.48176758 129.06347656 464.76025391 C129.1360537 469.37829989 129.18186421 473.99629577 129.21972656 478.61474609 C129.23980169 480.61092618 129.26706789 482.60704775 129.30175781 484.60302734 C129.35045657 487.4776862 129.37300986 490.3515654 129.390625 493.2265625 C129.41127014 494.11429352 129.43191528 495.00202454 129.45318604 495.91665649 C129.45517684 501.45447331 128.71702039 504.61741039 125 509 C119.77740143 513.05630398 114.34659858 512.77397544 108 512 C103.4184677 509.82980049 101.10849939 507.56935748 99 503 C98.59609825 499.77007273 98.65066098 496.57486791 98.70703125 493.32421875 C98.71127609 492.3990596 98.71552094 491.47390045 98.71989441 490.52070618 C98.73664007 487.5760037 98.77428478 484.6319944 98.8125 481.6875 C98.82755215 479.68685887 98.84123963 477.68620697 98.85351562 475.68554688 C98.88397391 470.78988495 98.94270294 465.89571517 99 461 C89.1 461 79.2 461 69 461 C69.04640625 463.96226562 69.0928125 466.92453125 69.140625 469.9765625 C69.17184913 472.85593961 69.19612066 475.73529763 69.21972656 478.61474609 C69.23980169 480.61092618 69.26706789 482.60704775 69.30175781 484.60302734 C69.35045657 487.4776862 69.37300986 490.3515654 69.390625 493.2265625 C69.41127014 494.11429352 69.43191528 495.00202454 69.45318604 495.91665649 C69.45517684 501.45447331 68.71702039 504.61741039 65 509 C59.77740143 513.05630398 54.34659858 512.77397544 48 512 C43.4184677 509.82980049 41.10849939 507.56935748 39 503 C38.59609825 499.77007273 38.65066098 496.57486791 38.70703125 493.32421875 C38.71127609 492.3990596 38.71552094 491.47390045 38.71989441 490.52070618 C38.73664007 487.5760037 38.77428478 484.6319944 38.8125 481.6875 C38.82755215 479.68685887 38.84123963 477.68620697 38.85351562 475.68554688 C38.88397391 470.78988495 38.94270294 465.89571517 39 461 C29.1 461 19.2 461 9 461 C9.04640625 463.96226562 9.0928125 466.92453125 9.140625 469.9765625 C9.17184913 472.85593961 9.19612066 475.73529763 9.21972656 478.61474609 C9.23980169 480.61092618 9.26706789 482.60704775 9.30175781 484.60302734 C9.35045657 487.4776862 9.37300986 490.3515654 9.390625 493.2265625 C9.41127014 494.11429352 9.43191528 495.00202454 9.45318604 495.91665649 C9.45517684 501.45447331 8.71702039 504.61741039 5 509 C-0.22259857 513.05630398 -5.65340142 512.77397544 -12 512 C-16.5815323 509.82980049 -18.89150061 507.56935748 -21 503 C-21.40390175 499.77007273 -21.34933902 496.57486791 -21.29296875 493.32421875 C-21.28872391 492.3990596 -21.28447906 491.47390045 -21.28010559 490.52070618 C-21.26335993 487.5760037 -21.22571522 484.6319944 -21.1875 481.6875 C-21.17244785 479.68685887 -21.15876037 477.68620697 -21.14648438 475.68554688 C-21.11346983 470.79009893 -21.06171575 465.89516685 -21 461 C-21.90766113 461.02094727 -22.81532227 461.04189453 -23.75048828 461.06347656 C-27.13877642 461.13190933 -30.5263235 461.18192295 -33.91503906 461.21972656 C-35.37772252 461.23976332 -36.84032666 461.26700104 -38.30273438 461.30175781 C-40.4129601 461.35063225 -42.52212136 461.37304659 -44.6328125 461.390625 C-45.90012207 461.41157227 -47.16743164 461.43251953 -48.47314453 461.45410156 C-53.64431403 460.78828575 -56.60547635 458.72422169 -59.85668945 454.7043457 C-61.32679521 451.22701036 -61.33952736 448.50171625 -61.29296875 444.73046875 C-61.28872391 444.04946609 -61.28447906 443.36846344 -61.28010559 442.66682434 C-61.2634061 440.50663541 -61.22577312 438.34740358 -61.1875 436.1875 C-61.17244174 434.71681042 -61.15875534 433.24610611 -61.14648438 431.77539062 C-61.11353214 428.18328643 -61.06181173 424.59173674 -61 421 C-62.24088379 421.02094727 -63.48176758 421.04189453 -64.76025391 421.06347656 C-69.37829989 421.1360537 -73.99629577 421.18186421 -78.61474609 421.21972656 C-80.61092618 421.23980169 -82.60704775 421.26706789 -84.60302734 421.30175781 C-87.4776862 421.35045657 -90.3515654 421.37300986 -93.2265625 421.390625 C-94.55815903 421.42159271 -94.55815903 421.42159271 -95.91665649 421.45318604 C-101.45447331 421.45517684 -104.61741039 420.71702039 -109 417 C-113.05630398 411.77740143 -112.77397544 406.34659858 -112 400 C-109.82980049 395.4184677 -107.56935748 393.10849939 -103 391 C-99.77007273 390.59609825 -96.57486791 390.65066098 -93.32421875 390.70703125 C-92.3990596 390.71127609 -91.47390045 390.71552094 -90.52070618 390.71989441 C-87.5760037 390.73664007 -84.6319944 390.77428478 -81.6875 390.8125 C-79.68685887 390.82755215 -77.68620697 390.84123963 -75.68554688 390.85351562 C-70.78988495 390.88397391 -65.89571517 390.94270294 -61 391 C-61 381.1 -61 371.2 -61 361 C-63.96226563 361.04640625 -66.92453125 361.0928125 -69.9765625 361.140625 C-72.85593961 361.17184913 -75.73529763 361.19612066 -78.61474609 361.21972656 C-80.61092618 361.23980169 -82.60704775 361.26706789 -84.60302734 361.30175781 C-87.4776862 361.35045657 -90.3515654 361.37300986 -93.2265625 361.390625 C-94.55815903 361.42159271 -94.55815903 361.42159271 -95.91665649 361.45318604 C-101.45447331 361.45517684 -104.61741039 360.71702039 -109 357 C-113.05630398 351.77740143 -112.77397544 346.34659858 -112 340 C-109.82980049 335.4184677 -107.56935748 333.10849939 -103 331 C-99.77007273 330.59609825 -96.57486791 330.65066098 -93.32421875 330.70703125 C-92.3990596 330.71127609 -91.47390045 330.71552094 -90.52070618 330.71989441 C-87.5760037 330.73664007 -84.6319944 330.77428478 -81.6875 330.8125 C-79.68685887 330.82755215 -77.68620697 330.84123963 -75.68554688 330.85351562 C-70.78988495 330.88397391 -65.89571517 330.94270294 -61 331 C-61 321.1 -61 311.2 -61 301 C-63.96226563 301.04640625 -66.92453125 301.0928125 -69.9765625 301.140625 C-72.85593961 301.17184913 -75.73529763 301.19612066 -78.61474609 301.21972656 C-80.61092618 301.23980169 -82.60704775 301.26706789 -84.60302734 301.30175781 C-87.4776862 301.35045657 -90.3515654 301.37300986 -93.2265625 301.390625 C-94.55815903 301.42159271 -94.55815903 301.42159271 -95.91665649 301.45318604 C-101.45447331 301.45517684 -104.61741039 300.71702039 -109 297 C-113.05630398 291.77740143 -112.77397544 286.34659858 -112 280 C-109.82980049 275.4184677 -107.56935748 273.10849939 -103 271 C-99.77007273 270.59609825 -96.57486791 270.65066098 -93.32421875 270.70703125 C-92.3990596 270.71127609 -91.47390045 270.71552094 -90.52070618 270.71989441 C-87.5760037 270.73664007 -84.6319944 270.77428478 -81.6875 270.8125 C-79.68685887 270.82755215 -77.68620697 270.84123963 -75.68554688 270.85351562 C-70.78988495 270.88397391 -65.89571517 270.94270294 -61 271 C-61 261.1 -61 251.2 -61 241 C-63.96226563 241.04640625 -66.92453125 241.0928125 -69.9765625 241.140625 C-72.85593961 241.17184913 -75.73529763 241.19612066 -78.61474609 241.21972656 C-80.61092618 241.23980169 -82.60704775 241.26706789 -84.60302734 241.30175781 C-87.4776862 241.35045657 -90.3515654 241.37300986 -93.2265625 241.390625 C-94.55815903 241.42159271 -94.55815903 241.42159271 -95.91665649 241.45318604 C-101.45447331 241.45517684 -104.61741039 240.71702039 -109 237 C-113.05630398 231.77740143 -112.77397544 226.34659858 -112 220 C-109.82980049 215.4184677 -107.56935748 213.10849939 -103 211 C-99.77007273 210.59609825 -96.57486791 210.65066098 -93.32421875 210.70703125 C-92.3990596 210.71127609 -91.47390045 210.71552094 -90.52070618 210.71989441 C-87.5760037 210.73664007 -84.6319944 210.77428478 -81.6875 210.8125 C-79.68685887 210.82755215 -77.68620697 210.84123963 -75.68554688 210.85351562 C-70.78988495 210.88397391 -65.89571517 210.94270294 -61 211 C-61 201.1 -61 191.2 -61 181 C-63.96226563 181.04640625 -66.92453125 181.0928125 -69.9765625 181.140625 C-72.85593961 181.17184913 -75.73529763 181.19612066 -78.61474609 181.21972656 C-80.61092618 181.23980169 -82.60704775 181.26706789 -84.60302734 181.30175781 C-87.4776862 181.35045657 -90.3515654 181.37300986 -93.2265625 181.390625 C-94.55815903 181.42159271 -94.55815903 181.42159271 -95.91665649 181.45318604 C-101.45447331 181.45517684 -104.61741039 180.71702039 -109 177 C-113.05630398 171.77740143 -112.77397544 166.34659858 -112 160 C-109.82980049 155.4184677 -107.56935748 153.10849939 -103 151 C-99.77007273 150.59609825 -96.57486791 150.65066098 -93.32421875 150.70703125 C-92.3990596 150.71127609 -91.47390045 150.71552094 -90.52070618 150.71989441 C-87.5760037 150.73664007 -84.6319944 150.77428478 -81.6875 150.8125 C-79.68685887 150.82755215 -77.68620697 150.84123963 -75.68554688 150.85351562 C-70.78988495 150.88397391 -65.89571517 150.94270294 -61 151 C-61 141.1 -61 131.2 -61 121 C-63.96226563 121.04640625 -66.92453125 121.0928125 -69.9765625 121.140625 C-72.85593961 121.17184913 -75.73529763 121.19612066 -78.61474609 121.21972656 C-80.61092618 121.23980169 -82.60704775 121.26706789 -84.60302734 121.30175781 C-87.4776862 121.35045657 -90.3515654 121.37300986 -93.2265625 121.390625 C-94.55815903 121.42159271 -94.55815903 121.42159271 -95.91665649 121.45318604 C-101.45447331 121.45517684 -104.61741039 120.71702039 -109 117 C-113.05630398 111.77740143 -112.77397544 106.34659858 -112 100 C-109.82980049 95.4184677 -107.56935748 93.10849939 -103 91 C-99.77007273 90.59609825 -96.57486791 90.65066098 -93.32421875 90.70703125 C-92.3990596 90.71127609 -91.47390045 90.71552094 -90.52070618 90.71989441 C-87.5760037 90.73664007 -84.6319944 90.77428478 -81.6875 90.8125 C-79.68685887 90.82755215 -77.68620697 90.84123963 -75.68554688 90.85351562 C-70.79009893 90.88653017 -65.89516685 90.93828425 -61 91 C-61.02094727 90.09233887 -61.04189453 89.18467773 -61.06347656 88.24951172 C-61.13190933 84.86122358 -61.18192295 81.4736765 -61.21972656 78.08496094 C-61.23976332 76.62227748 -61.26700104 75.15967334 -61.30175781 73.69726562 C-61.35063225 71.5870399 -61.37304659 69.47787864 -61.390625 67.3671875 C-61.41157227 66.09987793 -61.43251953 64.83256836 -61.45410156 63.52685547 C-60.78828575 58.35568597 -58.72422169 55.39452365 -54.7043457 52.14331055 C-51.22701036 50.67320479 -48.50171625 50.66047264 -44.73046875 50.70703125 C-43.70896477 50.71339851 -43.70896477 50.71339851 -42.66682434 50.71989441 C-40.50663541 50.7365939 -38.34740358 50.77422688 -36.1875 50.8125 C-34.71681042 50.82755826 -33.24610611 50.84124466 -31.77539062 50.85351562 C-28.18328643 50.88646786 -24.59173674 50.93818827 -21 51 C-21.0314209 49.13867432 -21.0314209 49.13867432 -21.06347656 47.23974609 C-21.1360537 42.62170011 -21.18186421 38.00370423 -21.21972656 33.38525391 C-21.23980169 31.38907382 -21.26706789 29.39295225 -21.30175781 27.39697266 C-21.35045657 24.5223138 -21.37300986 21.6484346 -21.390625 18.7734375 C-21.41127014 17.88570648 -21.43191528 16.99797546 -21.45318604 16.08334351 C-21.45517684 10.54552669 -20.71702039 7.38258961 -17 3 C-11.77740143 -1.05630398 -6.34659858 -0.77397544 0 0 Z " fill="#ADCFFE" transform="translate(112,0)"/>
<path d="M0 0 C1.30800064 -0.00058411 2.61600128 -0.00116821 3.96363831 -0.00177002 C7.53358047 -0.00291335 11.10298035 0.02053322 14.67279696 0.04852581 C18.40968975 0.07360365 22.14659623 0.07588647 25.88356018 0.08062744 C32.95247347 0.09303856 40.02113805 0.12583467 47.08994204 0.1660254 C55.14070197 0.21080139 63.19147404 0.23274475 71.24232757 0.25280714 C87.7965441 0.29456917 104.35051077 0.36488462 120.90454102 0.45410156 C120.87043625 1.63266724 120.83633148 2.81123291 120.80119324 4.0255127 C117.63580576 81.67985654 117.63580576 81.67985654 140.14916992 154.78320312 C144.31882383 163.16746873 147.52121762 171.92169367 150.74237061 180.70361328 C151.67673445 183.22052701 152.64914243 185.71889834 153.63549805 188.21582031 C159.37597422 202.96421056 159.37597422 202.96421056 157.90454102 210.45410156 C155.57485171 215.29268705 152.7431265 218.12441226 147.90454102 220.45410156 C143.10297532 221.30330409 138.48377793 221.25769788 134.15454102 218.82910156 C129.00000585 214.58633559 127.15053265 207.51440658 124.90454102 201.45410156 C123.91454102 198.81410156 122.92454102 196.17410156 121.90454102 193.45410156 C121.40954102 241.46910156 121.40954102 241.46910156 120.90454102 290.45410156 C87.62319098 290.65561673 87.62319098 290.65561673 73.66235352 290.69824219 C64.02777784 290.72789508 54.39342102 290.76272919 44.7590332 290.83129883 C37.74190874 290.88121703 30.72496206 290.91341222 23.70766497 290.92454404 C19.99376441 290.9310487 16.28037233 290.94627892 12.56663513 290.98275185 C8.4153715 291.02318908 4.26498546 291.02404562 0.11352539 291.02172852 C-1.11071136 291.0397049 -2.33494812 291.05768127 -3.59628296 291.07620239 C-9.74793843 291.03906359 -14.28851819 290.56728655 -19.51686859 287.21148968 C-24.71342027 281.42635491 -24.52676956 274.882262 -24.48313904 267.52307129 C-24.48852458 266.4317208 -24.49391011 265.3403703 -24.49945885 264.21594858 C-24.51375049 260.56409796 -24.50663152 256.91260918 -24.49951172 253.26074219 C-24.50521458 250.64055591 -24.51217852 248.02037212 -24.52030945 245.40019226 C-24.5374861 239.02529873 -24.53833994 232.65050382 -24.53309654 226.27559316 C-24.52905195 221.09369684 -24.53050183 215.91182963 -24.5358448 210.72993469 C-24.53659322 209.99188273 -24.53734165 209.25383077 -24.53811275 208.4934136 C-24.53964425 206.99398545 -24.5411826 205.4945573 -24.54272772 203.99512917 C-24.55644833 189.94130721 -24.55101787 175.88754095 -24.5395425 161.83372027 C-24.52960773 148.98015103 -24.54255574 136.12672568 -24.5664767 123.27317864 C-24.59086526 110.06871334 -24.60047635 96.86431508 -24.59382397 83.65982771 C-24.59033157 76.2490314 -24.5925653 68.8383458 -24.610075 61.42756653 C-24.62633223 54.46061096 -24.62161917 47.49393493 -24.60276985 40.52698708 C-24.59907648 37.96918097 -24.60221408 35.41135458 -24.61265564 32.85356712 C-24.62581506 29.36376933 -24.6143615 25.87488986 -24.59666443 22.38513184 C-24.60626944 21.37141337 -24.61587444 20.3576949 -24.62577051 19.31325769 C-24.56143518 13.1533545 -23.73760181 9.47647535 -20.09545898 4.45410156 C-13.94509906 -0.600231 -7.701388 -0.09020326 0 0 Z " fill="#5F55AF" transform="translate(135.095458984375,110.5458984375)"/>
<path d="M0 0 C17.35049685 -0.09350945 34.70091487 -0.1640115 52.05160618 -0.20724869 C60.10813898 -0.22785955 68.16451506 -0.25595177 76.22094727 -0.30175781 C83.24428744 -0.34167096 90.2675141 -0.36744355 97.29096454 -0.37635398 C101.00866466 -0.38156121 104.72604006 -0.39376883 108.44363594 -0.42292023 C112.59741648 -0.45522669 116.7506352 -0.45595655 120.90454102 -0.45410156 C122.13237305 -0.46848267 123.36020508 -0.48286377 124.62524414 -0.49768066 C131.2694397 -0.46555197 135.77485195 -0.29399844 141 4 C145.31388222 9.94867639 145.56961502 14.7110404 145.50120544 21.93103027 C145.50950704 23.56805601 145.50950704 23.56805601 145.51797634 25.23815298 C145.53157471 28.89012103 145.51661722 32.54140473 145.50170898 36.19335938 C145.50549243 38.81354564 145.51099268 41.4337299 145.51808167 44.0539093 C145.53200015 50.42884495 145.52446833 56.80358224 145.50940608 63.1785084 C145.49252782 70.6053417 145.49575854 78.03212584 145.49950016 85.45897239 C145.5053762 98.71210887 145.49121729 111.96515029 145.46655273 125.21826172 C145.44263271 138.07279015 145.4355488 150.92719159 145.44604492 163.78173828 C145.45745931 177.78593661 145.45937775 191.79007623 145.44494683 205.79427385 C145.44342102 207.28812694 145.44190066 208.78198003 145.44038582 210.27583313 C145.439628 211.01080067 145.43887019 211.74576822 145.43808941 212.5030075 C145.43335061 217.67752557 145.43519515 222.85201737 145.43945122 228.02653503 C145.44489797 234.99346523 145.43411622 241.96021656 145.41249657 248.92711449 C145.40692948 251.4849151 145.40646266 254.04273263 145.41144943 256.60053444 C145.41740004 260.09020843 145.40490047 263.57934423 145.38768005 267.06896973 C145.39669512 268.58954743 145.39669512 268.58954743 145.40589231 270.14084387 C145.35446182 275.86701827 144.77780386 279.95295544 142 285 C137.66521539 289.11804538 134.42499997 290.12574836 128.55207825 290.12025452 C127.42045761 290.12162918 126.28883698 290.12300385 125.1229248 290.12442017 C123.2596051 290.11902725 123.2596051 290.11902725 121.35864258 290.11352539 C119.39751778 290.11374443 119.39751778 290.11374443 117.39677429 290.1139679 C113.81027576 290.11425515 110.22381058 290.10837007 106.6373198 290.10139394 C102.8896999 290.09514839 99.14207926 290.09455565 95.39445496 290.09336853 C88.29718763 290.09025876 81.19993569 290.08205014 74.10267514 290.07201904 C64.51257387 290.05875845 54.9224684 290.05335513 45.33236027 290.04751682 C30.22156199 290.03811003 15.11079617 290.01818873 0 290 C0 257.33 0 224.66 0 191 C2.16243713 193.16243713 2.72551868 194.55832105 3.76953125 197.39453125 C4.10146484 198.26787109 4.43339844 199.14121094 4.77539062 200.04101562 C5.46151508 201.87455724 6.14131093 203.71048072 6.81445312 205.54882812 C9.06216236 211.42048314 11.12330736 216.06165368 17 219 C21.98066973 219.54644038 25.8958307 219.54204675 30.4375 217.3125 C33.69765601 214.37040799 35.76842449 212.35932871 36.2118988 207.84114075 C36.31109213 201.68480532 35.35826378 196.89714943 33.09765625 191.19921875 C32.78841217 190.38039215 32.47916809 189.56156555 32.16055298 188.71792603 C31.14319552 186.03498473 30.10301476 183.36153533 29.0625 180.6875 C28.34386789 178.80488718 27.62685559 176.92165534 26.91137695 175.0378418 C25.40325272 171.07377762 23.88615878 167.11331662 22.36230469 163.15527344 C19.96777422 156.92850117 17.60878409 150.68864132 15.2578125 144.4453125 C14.87328415 143.42433975 14.4887558 142.403367 14.09257507 141.35145569 C13.33046419 139.32787602 12.56839389 137.30428107 11.80636597 135.28067017 C9.71820297 129.741112 7.62072163 124.20508069 5.52310181 118.6690979 C5.23405975 117.90600311 4.9450177 117.14290833 4.6472168 116.35668945 C4.40013474 115.70473099 4.15305267 115.05277252 3.89848328 114.38105774 C3.6019838 113.59530869 3.30548431 112.80955963 3 112 C2.21707581 110.2086689 2.21707581 110.2086689 1.41833496 108.38114929 C-0.42173564 103.43853757 -0.40027985 98.7687429 -0.34057617 93.54492188 C-0.34101425 92.52938232 -0.34145233 91.51384277 -0.34190369 90.4675293 C-0.33982544 87.13440247 -0.31653959 83.80178819 -0.29296875 80.46875 C-0.28736938 78.14848098 -0.28310089 75.82820841 -0.28010559 73.50793457 C-0.26868376 67.41860053 -0.23923932 61.32948316 -0.20599365 55.24023438 C-0.17523543 49.01956106 -0.16158796 42.79885254 -0.14648438 36.578125 C-0.11436721 24.38532178 -0.06320297 12.19267895 0 0 Z " fill="#39326C" transform="translate(256,111)"/>
<path d="M0 0 C9.79495809 5.45191064 12.67598011 16.61146888 16.2890625 26.53799438 C17.55150019 30.0057444 18.83377207 33.46605969 20.11502075 36.92689514 C20.8228738 38.83893753 21.52977497 40.75133254 22.23580933 42.66404724 C25.24314072 50.80019358 28.30612602 58.91481428 31.38671875 67.0234375 C31.62876982 67.66062462 31.87082088 68.29781174 32.12020683 68.95430756 C33.83149742 73.45829321 35.54450994 77.96162314 37.2578125 82.46484375 C39.9661349 89.58382884 42.67210456 96.70360291 45.359375 103.83056641 C46.86413121 107.8174637 48.39842348 111.78996739 49.96875 115.75146484 C50.30064331 116.60564499 50.63253662 117.45982513 50.9744873 118.33988953 C51.57087003 119.87463364 52.17928808 121.40479789 52.80383301 122.92829895 C54.8623747 128.29547756 55.42488276 133.4221583 54.7578125 139.15234375 C52.42812319 143.99092923 49.59639798 146.82265444 44.7578125 149.15234375 C39.95624681 150.00154628 35.33704941 149.95594007 31.0078125 147.52734375 C23.63001827 141.41978296 21.32123423 128.69708285 18.7578125 120.15234375 C1.5978125 120.48234375 -15.5621875 120.81234375 -33.2421875 121.15234375 C-36.2121875 128.41234375 -39.1821875 135.67234375 -42.2421875 143.15234375 C-49.89684985 149.53122905 -49.89684985 149.53122905 -56.92578125 149.4296875 C-61.77163856 148.84949211 -64.42875234 146.02999748 -67.6171875 142.58984375 C-70.62447826 136.22826714 -70.09378355 130.40258761 -67.90283203 123.78637695 C-65.94809393 118.33259755 -63.7769804 112.9648056 -61.6171875 107.58984375 C-60.81394716 105.55096947 -60.01289132 103.51123341 -59.21386719 101.47070312 C-57.93630221 98.2085976 -56.6573873 94.94709186 -55.37194824 91.68807983 C-51.96607977 83.04652547 -48.64405469 74.3756169 -45.359375 65.6875 C-45.11446194 65.03985624 -44.86954887 64.39221249 -44.6172142 63.72494316 C-43.14738639 59.83706464 -41.6794614 55.94846966 -40.21204376 52.05968094 C-36.93049434 43.36486007 -33.64167824 34.67287054 -30.32543945 25.99121094 C-29.64239508 24.20116363 -28.96158313 22.41026137 -28.28393555 20.61816406 C-27.48202787 18.50100203 -26.66916084 16.38848487 -25.8515625 14.27734375 C-25.43358398 13.18679687 -25.01560547 12.09625 -24.58496094 10.97265625 C-19.87916424 1.08877198 -10.59516897 -4.00549071 0 0 Z " fill="#F7F7F8" transform="translate(238.2421875,181.84765625)"/>
<path d="M0 0 C4.40411277 2.24360462 7.47844543 4.75780597 10 9 C10.60891158 13.16142434 10.54597063 17.29851975 10.51757812 21.49780273 C10.5245874 22.76661285 10.53159668 24.03542297 10.53881836 25.34268188 C10.55702659 28.81597441 10.54999446 32.28879074 10.53730202 35.7620914 C10.527159 39.40147078 10.5365715 43.04081001 10.54284668 46.68019104 C10.55012026 52.79248353 10.5405441 58.90458259 10.52148438 65.0168457 C10.49972573 72.07598718 10.5067605 79.13466634 10.52879 86.19379658 C10.54696403 92.26107239 10.5494923 98.32820932 10.53903532 104.39550358 C10.53281006 108.01633944 10.53193765 111.63695829 10.54518127 115.25778008 C10.55892153 119.29639766 10.53985765 123.33422329 10.51757812 127.37280273 C10.52567505 128.5683226 10.53377197 129.76384247 10.54211426 130.99559021 C10.47770427 137.29580691 10.30157967 141.24800842 6 146 C1.84468544 149.67213845 -1.41873732 150.65535778 -6.82421875 150.3828125 C-11.44415343 149.56996941 -14.08440333 147.01325901 -17.13363647 143.63877869 C-20.25253059 138.77020365 -19.57249269 132.98189971 -19.54931641 127.40454102 C-19.55953827 126.13719116 -19.56976013 124.86984131 -19.58029175 123.56408691 C-19.60699763 120.09908854 -19.60823776 116.63452742 -19.60316515 113.16944623 C-19.60102075 110.27187677 -19.61080502 107.37439489 -19.62037599 104.47684425 C-19.64254037 97.63871125 -19.64345573 90.800798 -19.63134766 83.96264648 C-19.6192666 76.91868719 -19.64389803 69.87552674 -19.68648779 62.83170372 C-19.72176377 56.77372237 -19.73371581 50.71599481 -19.72721231 44.65791458 C-19.7235933 41.04418349 -19.72878981 37.43102238 -19.75664139 33.81738472 C-19.78655213 29.78601653 -19.76782221 25.75626593 -19.74462891 21.72485352 C-19.75991638 20.53449997 -19.77520386 19.34414642 -19.79095459 18.11772156 C-19.71051804 11.79222105 -19.20376579 7.87713005 -14.67694664 3.27920437 C-10.01507628 -0.27695227 -5.72355515 -0.80627473 0 0 Z " fill="#E1DEF3" transform="translate(333,181)"/>
<path d="M0 0 C1.73784927 2.60677391 2.73821492 4.67571369 3.82495117 7.57104492 C4.17730331 8.50420532 4.52965546 9.43736572 4.89268494 10.39880371 C5.27227859 11.41575317 5.65187225 12.43270264 6.04296875 13.48046875 C6.44395279 14.54519409 6.84493683 15.60991943 7.2580719 16.70690918 C8.57201985 20.19890101 9.88026311 23.69299074 11.1875 27.1875 C12.54236613 30.80431459 13.89763863 34.42097656 15.25314331 38.03755188 C16.16780121 40.47803057 17.08196258 42.91869541 17.99563599 45.35954285 C20.83920185 52.94492078 23.73111603 60.50977413 26.66015625 68.0625 C27.69794257 70.75750631 28.7341237 73.45312219 29.7694397 76.14907837 C30.41725869 77.82611725 31.0707858 79.50096359 31.73031616 81.1734314 C38.51066167 98.38139207 38.51066167 98.38139207 37 106 C34.67031069 110.83858548 31.83858548 113.67031069 27 116 C22.19843431 116.84920253 17.57923691 116.80359632 13.25 114.375 C5.87220577 108.26743921 3.56342173 95.5447391 1 87 C-16.16 87 -33.32 87 -51 87 C-51 86.67 -51 86.34 -51 86 C-34.17 86 -17.34 86 0 86 C0 57.62 0 29.24 0 0 Z " fill="#DFDCF2" transform="translate(256,215)"/>
<path d="M0 0 C9.9 0 19.8 0 30 0 C30.09199537 5.87237118 30.17158327 11.74222757 30.21972656 17.61474609 C30.23980169 19.61092618 30.26706789 21.60704775 30.30175781 23.60302734 C30.35045657 26.4776862 30.37300986 29.3515654 30.390625 32.2265625 C30.41127014 33.11429352 30.43191528 34.00202454 30.45318604 34.91665649 C30.45517684 40.45447331 29.71702039 43.61741039 26 48 C20.77740143 52.05630398 15.34659858 51.77397544 9 51 C4.4184677 48.82980049 2.10849939 46.56935748 0 42 C-0.40390175 38.77007273 -0.34933902 35.57486791 -0.29296875 32.32421875 C-0.28872391 31.3990596 -0.28447906 30.47390045 -0.28010559 29.52070618 C-0.26335993 26.5760037 -0.22571522 23.6319944 -0.1875 20.6875 C-0.17244785 18.68685887 -0.15876037 16.68620697 -0.14648438 14.68554688 C-0.11602609 9.78988495 -0.05729706 4.89571517 0 0 Z " fill="#38316B" transform="translate(391,461)"/>
<path d="M0 0 C9.9 0 19.8 0 30 0 C30.09199537 5.87237118 30.17158327 11.74222757 30.21972656 17.61474609 C30.23980169 19.61092618 30.26706789 21.60704775 30.30175781 23.60302734 C30.35045657 26.4776862 30.37300986 29.3515654 30.390625 32.2265625 C30.41127014 33.11429352 30.43191528 34.00202454 30.45318604 34.91665649 C30.45517684 40.45447331 29.71702039 43.61741039 26 48 C20.77740143 52.05630398 15.34659858 51.77397544 9 51 C4.4184677 48.82980049 2.10849939 46.56935748 0 42 C-0.40390175 38.77007273 -0.34933902 35.57486791 -0.29296875 32.32421875 C-0.28872391 31.3990596 -0.28447906 30.47390045 -0.28010559 29.52070618 C-0.26335993 26.5760037 -0.22571522 23.6319944 -0.1875 20.6875 C-0.17244785 18.68685887 -0.15876037 16.68620697 -0.14648438 14.68554688 C-0.11602609 9.78988495 -0.05729706 4.89571517 0 0 Z " fill="#38316B" transform="translate(331,461)"/>
<path d="M0 0 C9.9 0 19.8 0 30 0 C30.09199537 5.87237118 30.17158327 11.74222757 30.21972656 17.61474609 C30.23980169 19.61092618 30.26706789 21.60704775 30.30175781 23.60302734 C30.35045657 26.4776862 30.37300986 29.3515654 30.390625 32.2265625 C30.41127014 33.11429352 30.43191528 34.00202454 30.45318604 34.91665649 C30.45517684 40.45447331 29.71702039 43.61741039 26 48 C20.77740143 52.05630398 15.34659858 51.77397544 9 51 C4.4184677 48.82980049 2.10849939 46.56935748 0 42 C-0.40390175 38.77007273 -0.34933902 35.57486791 -0.29296875 32.32421875 C-0.28872391 31.3990596 -0.28447906 30.47390045 -0.28010559 29.52070618 C-0.26335993 26.5760037 -0.22571522 23.6319944 -0.1875 20.6875 C-0.17244785 18.68685887 -0.15876037 16.68620697 -0.14648438 14.68554688 C-0.11602609 9.78988495 -0.05729706 4.89571517 0 0 Z " fill="#38316B" transform="translate(271,461)"/>
<path d="M0 0 C9.9 0 19.8 0 30 0 C30.09199537 5.87237118 30.17158327 11.74222757 30.21972656 17.61474609 C30.23980169 19.61092618 30.26706789 21.60704775 30.30175781 23.60302734 C30.35045657 26.4776862 30.37300986 29.3515654 30.390625 32.2265625 C30.41127014 33.11429352 30.43191528 34.00202454 30.45318604 34.91665649 C30.45517684 40.45447331 29.71702039 43.61741039 26 48 C20.77740143 52.05630398 15.34659858 51.77397544 9 51 C4.4184677 48.82980049 2.10849939 46.56935748 0 42 C-0.40390175 38.77007273 -0.34933902 35.57486791 -0.29296875 32.32421875 C-0.28872391 31.3990596 -0.28447906 30.47390045 -0.28010559 29.52070618 C-0.26335993 26.5760037 -0.22571522 23.6319944 -0.1875 20.6875 C-0.17244785 18.68685887 -0.15876037 16.68620697 -0.14648438 14.68554688 C-0.11602609 9.78988495 -0.05729706 4.89571517 0 0 Z " fill="#5F55AE" transform="translate(211,461)"/>
<path d="M0 0 C9.9 0 19.8 0 30 0 C30.09199537 5.87237118 30.17158327 11.74222757 30.21972656 17.61474609 C30.23980169 19.61092618 30.26706789 21.60704775 30.30175781 23.60302734 C30.35045657 26.4776862 30.37300986 29.3515654 30.390625 32.2265625 C30.41127014 33.11429352 30.43191528 34.00202454 30.45318604 34.91665649 C30.45517684 40.45447331 29.71702039 43.61741039 26 48 C20.77740143 52.05630398 15.34659858 51.77397544 9 51 C4.4184677 48.82980049 2.10849939 46.56935748 0 42 C-0.40390175 38.77007273 -0.34933902 35.57486791 -0.29296875 32.32421875 C-0.28872391 31.3990596 -0.28447906 30.47390045 -0.28010559 29.52070618 C-0.26335993 26.5760037 -0.22571522 23.6319944 -0.1875 20.6875 C-0.17244785 18.68685887 -0.15876037 16.68620697 -0.14648438 14.68554688 C-0.11602609 9.78988495 -0.05729706 4.89571517 0 0 Z " fill="#5F55AE" transform="translate(151,461)"/>
<path d="M0 0 C9.9 0 19.8 0 30 0 C30.09199537 5.87237118 30.17158327 11.74222757 30.21972656 17.61474609 C30.23980169 19.61092618 30.26706789 21.60704775 30.30175781 23.60302734 C30.35045657 26.4776862 30.37300986 29.3515654 30.390625 32.2265625 C30.41127014 33.11429352 30.43191528 34.00202454 30.45318604 34.91665649 C30.45517684 40.45447331 29.71702039 43.61741039 26 48 C20.77740143 52.05630398 15.34659858 51.77397544 9 51 C4.4184677 48.82980049 2.10849939 46.56935748 0 42 C-0.40390175 38.77007273 -0.34933902 35.57486791 -0.29296875 32.32421875 C-0.28872391 31.3990596 -0.28447906 30.47390045 -0.28010559 29.52070618 C-0.26335993 26.5760037 -0.22571522 23.6319944 -0.1875 20.6875 C-0.17244785 18.68685887 -0.15876037 16.68620697 -0.14648438 14.68554688 C-0.11602609 9.78988495 -0.05729706 4.89571517 0 0 Z " fill="#5F55AE" transform="translate(91,461)"/>
<path d="M0 0 C5.87237118 -0.09199537 11.74222757 -0.17158327 17.61474609 -0.21972656 C19.61092618 -0.23980169 21.60704775 -0.26706789 23.60302734 -0.30175781 C26.4776862 -0.35045657 29.3515654 -0.37300986 32.2265625 -0.390625 C33.55815903 -0.42159271 33.55815903 -0.42159271 34.91665649 -0.45318604 C40.45447331 -0.45517684 43.61741039 0.28297961 48 4 C52.05630398 9.22259857 51.77397544 14.65340142 51 21 C48.82980049 25.5815323 46.56935748 27.89150061 42 30 C38.77007273 30.40390175 35.57486791 30.34933902 32.32421875 30.29296875 C31.3990596 30.28872391 30.47390045 30.28447906 29.52070618 30.28010559 C26.5760037 30.26335993 23.6319944 30.22571522 20.6875 30.1875 C18.68685887 30.17244785 16.68620697 30.15876037 14.68554688 30.14648438 C9.78988495 30.11602609 4.89571517 30.05729706 0 30 C0 20.1 0 10.2 0 0 Z " fill="#38316C" transform="translate(461,391)"/>
<path d="M0 0 C0.92515915 0.00424484 1.8503183 0.00848969 2.80351257 0.01286316 C5.74821505 0.02960882 8.69222435 0.06725353 11.63671875 0.10546875 C13.63735988 0.1205209 15.63801178 0.13420838 17.63867188 0.14648438 C22.5343338 0.17694266 27.42850358 0.23567169 32.32421875 0.29296875 C32.32421875 10.19296875 32.32421875 20.09296875 32.32421875 30.29296875 C26.45184757 30.38496412 20.58199118 30.46455202 14.70947266 30.51269531 C12.71329257 30.53277044 10.717171 30.56003664 8.72119141 30.59472656 C5.84653255 30.64342532 2.97265335 30.66597861 0.09765625 30.68359375 C-1.23394028 30.71456146 -1.23394028 30.71456146 -2.59243774 30.74615479 C-8.13025456 30.74814559 -11.29319164 30.00998914 -15.67578125 26.29296875 C-19.73208523 21.07037018 -19.44975669 15.63956733 -18.67578125 9.29296875 C-14.57271043 0.63093036 -8.73396645 -0.15145777 0 0 Z " fill="#5E54AE" transform="translate(18.67578125,390.70703125)"/>
<path d="M0 0 C5.87237118 -0.09199537 11.74222757 -0.17158327 17.61474609 -0.21972656 C19.61092618 -0.23980169 21.60704775 -0.26706789 23.60302734 -0.30175781 C26.4776862 -0.35045657 29.3515654 -0.37300986 32.2265625 -0.390625 C33.55815903 -0.42159271 33.55815903 -0.42159271 34.91665649 -0.45318604 C40.45447331 -0.45517684 43.61741039 0.28297961 48 4 C52.05630398 9.22259857 51.77397544 14.65340142 51 21 C48.82980049 25.5815323 46.56935748 27.89150061 42 30 C38.77007273 30.40390175 35.57486791 30.34933902 32.32421875 30.29296875 C31.3990596 30.28872391 30.47390045 30.28447906 29.52070618 30.28010559 C26.5760037 30.26335993 23.6319944 30.22571522 20.6875 30.1875 C18.68685887 30.17244785 16.68620697 30.15876037 14.68554688 30.14648438 C9.78988495 30.11602609 4.89571517 30.05729706 0 30 C0 20.1 0 10.2 0 0 Z " fill="#38316C" transform="translate(461,331)"/>
<path d="M0 0 C0.92515915 0.00424484 1.8503183 0.00848969 2.80351257 0.01286316 C5.74821505 0.02960882 8.69222435 0.06725353 11.63671875 0.10546875 C13.63735988 0.1205209 15.63801178 0.13420838 17.63867188 0.14648438 C22.5343338 0.17694266 27.42850358 0.23567169 32.32421875 0.29296875 C32.32421875 10.19296875 32.32421875 20.09296875 32.32421875 30.29296875 C26.45184757 30.38496412 20.58199118 30.46455202 14.70947266 30.51269531 C12.71329257 30.53277044 10.717171 30.56003664 8.72119141 30.59472656 C5.84653255 30.64342532 2.97265335 30.66597861 0.09765625 30.68359375 C-1.23394028 30.71456146 -1.23394028 30.71456146 -2.59243774 30.74615479 C-8.13025456 30.74814559 -11.29319164 30.00998914 -15.67578125 26.29296875 C-19.73208523 21.07037018 -19.44975669 15.63956733 -18.67578125 9.29296875 C-14.57271043 0.63093036 -8.73396645 -0.15145777 0 0 Z " fill="#5E54AE" transform="translate(18.67578125,330.70703125)"/>
<path d="M0 0 C5.87237118 -0.09199537 11.74222757 -0.17158327 17.61474609 -0.21972656 C19.61092618 -0.23980169 21.60704775 -0.26706789 23.60302734 -0.30175781 C26.4776862 -0.35045657 29.3515654 -0.37300986 32.2265625 -0.390625 C33.55815903 -0.42159271 33.55815903 -0.42159271 34.91665649 -0.45318604 C40.45447331 -0.45517684 43.61741039 0.28297961 48 4 C52.05630398 9.22259857 51.77397544 14.65340142 51 21 C48.82980049 25.5815323 46.56935748 27.89150061 42 30 C38.77007273 30.40390175 35.57486791 30.34933902 32.32421875 30.29296875 C31.3990596 30.28872391 30.47390045 30.28447906 29.52070618 30.28010559 C26.5760037 30.26335993 23.6319944 30.22571522 20.6875 30.1875 C18.68685887 30.17244785 16.68620697 30.15876037 14.68554688 30.14648438 C9.78988495 30.11602609 4.89571517 30.05729706 0 30 C0 20.1 0 10.2 0 0 Z " fill="#38316C" transform="translate(461,271)"/>
<path d="M0 0 C0.92515915 0.00424484 1.8503183 0.00848969 2.80351257 0.01286316 C5.74821505 0.02960882 8.69222435 0.06725353 11.63671875 0.10546875 C13.63735988 0.1205209 15.63801178 0.13420838 17.63867188 0.14648438 C22.5343338 0.17694266 27.42850358 0.23567169 32.32421875 0.29296875 C32.32421875 10.19296875 32.32421875 20.09296875 32.32421875 30.29296875 C26.45184757 30.38496412 20.58199118 30.46455202 14.70947266 30.51269531 C12.71329257 30.53277044 10.717171 30.56003664 8.72119141 30.59472656 C5.84653255 30.64342532 2.97265335 30.66597861 0.09765625 30.68359375 C-1.23394028 30.71456146 -1.23394028 30.71456146 -2.59243774 30.74615479 C-8.13025456 30.74814559 -11.29319164 30.00998914 -15.67578125 26.29296875 C-19.73208523 21.07037018 -19.44975669 15.63956733 -18.67578125 9.29296875 C-14.57271043 0.63093036 -8.73396645 -0.15145777 0 0 Z " fill="#5E54AE" transform="translate(18.67578125,270.70703125)"/>
<path d="M0 0 C5.87237118 -0.09199537 11.74222757 -0.17158327 17.61474609 -0.21972656 C19.61092618 -0.23980169 21.60704775 -0.26706789 23.60302734 -0.30175781 C26.4776862 -0.35045657 29.3515654 -0.37300986 32.2265625 -0.390625 C33.55815903 -0.42159271 33.55815903 -0.42159271 34.91665649 -0.45318604 C40.45447331 -0.45517684 43.61741039 0.28297961 48 4 C52.05630398 9.22259857 51.77397544 14.65340142 51 21 C48.82980049 25.5815323 46.56935748 27.89150061 42 30 C38.77007273 30.40390175 35.57486791 30.34933902 32.32421875 30.29296875 C31.3990596 30.28872391 30.47390045 30.28447906 29.52070618 30.28010559 C26.5760037 30.26335993 23.6319944 30.22571522 20.6875 30.1875 C18.68685887 30.17244785 16.68620697 30.15876037 14.68554688 30.14648438 C9.78988495 30.11602609 4.89571517 30.05729706 0 30 C0 20.1 0 10.2 0 0 Z " fill="#38316C" transform="translate(461,211)"/>
<path d="M0 0 C0.92515915 0.00424484 1.8503183 0.00848969 2.80351257 0.01286316 C5.74821505 0.02960882 8.69222435 0.06725353 11.63671875 0.10546875 C13.63735988 0.1205209 15.63801178 0.13420838 17.63867188 0.14648438 C22.5343338 0.17694266 27.42850358 0.23567169 32.32421875 0.29296875 C32.32421875 10.19296875 32.32421875 20.09296875 32.32421875 30.29296875 C26.45184757 30.38496412 20.58199118 30.46455202 14.70947266 30.51269531 C12.71329257 30.53277044 10.717171 30.56003664 8.72119141 30.59472656 C5.84653255 30.64342532 2.97265335 30.66597861 0.09765625 30.68359375 C-1.23394028 30.71456146 -1.23394028 30.71456146 -2.59243774 30.74615479 C-8.13025456 30.74814559 -11.29319164 30.00998914 -15.67578125 26.29296875 C-19.73208523 21.07037018 -19.44975669 15.63956733 -18.67578125 9.29296875 C-14.57271043 0.63093036 -8.73396645 -0.15145777 0 0 Z " fill="#5E54AE" transform="translate(18.67578125,210.70703125)"/>
<path d="M0 0 C5.87237118 -0.09199537 11.74222757 -0.17158327 17.61474609 -0.21972656 C19.61092618 -0.23980169 21.60704775 -0.26706789 23.60302734 -0.30175781 C26.4776862 -0.35045657 29.3515654 -0.37300986 32.2265625 -0.390625 C33.55815903 -0.42159271 33.55815903 -0.42159271 34.91665649 -0.45318604 C40.45447331 -0.45517684 43.61741039 0.28297961 48 4 C52.05630398 9.22259857 51.77397544 14.65340142 51 21 C48.82980049 25.5815323 46.56935748 27.89150061 42 30 C38.77007273 30.40390175 35.57486791 30.34933902 32.32421875 30.29296875 C31.3990596 30.28872391 30.47390045 30.28447906 29.52070618 30.28010559 C26.5760037 30.26335993 23.6319944 30.22571522 20.6875 30.1875 C18.68685887 30.17244785 16.68620697 30.15876037 14.68554688 30.14648438 C9.78988495 30.11602609 4.89571517 30.05729706 0 30 C0 20.1 0 10.2 0 0 Z " fill="#38316C" transform="translate(461,151)"/>
<path d="M0 0 C0.92515915 0.00424484 1.8503183 0.00848969 2.80351257 0.01286316 C5.74821505 0.02960882 8.69222435 0.06725353 11.63671875 0.10546875 C13.63735988 0.1205209 15.63801178 0.13420838 17.63867188 0.14648438 C22.5343338 0.17694266 27.42850358 0.23567169 32.32421875 0.29296875 C32.32421875 10.19296875 32.32421875 20.09296875 32.32421875 30.29296875 C26.45184757 30.38496412 20.58199118 30.46455202 14.70947266 30.51269531 C12.71329257 30.53277044 10.717171 30.56003664 8.72119141 30.59472656 C5.84653255 30.64342532 2.97265335 30.66597861 0.09765625 30.68359375 C-1.23394028 30.71456146 -1.23394028 30.71456146 -2.59243774 30.74615479 C-8.13025456 30.74814559 -11.29319164 30.00998914 -15.67578125 26.29296875 C-19.73208523 21.07037018 -19.44975669 15.63956733 -18.67578125 9.29296875 C-14.57271043 0.63093036 -8.73396645 -0.15145777 0 0 Z " fill="#5E54AE" transform="translate(18.67578125,150.70703125)"/>
<path d="M0 0 C5.87237118 -0.09199537 11.74222757 -0.17158327 17.61474609 -0.21972656 C19.61092618 -0.23980169 21.60704775 -0.26706789 23.60302734 -0.30175781 C26.4776862 -0.35045657 29.3515654 -0.37300986 32.2265625 -0.390625 C33.55815903 -0.42159271 33.55815903 -0.42159271 34.91665649 -0.45318604 C40.45447331 -0.45517684 43.61741039 0.28297961 48 4 C52.05630398 9.22259857 51.77397544 14.65340142 51 21 C48.82980049 25.5815323 46.56935748 27.89150061 42 30 C38.77007273 30.40390175 35.57486791 30.34933902 32.32421875 30.29296875 C31.3990596 30.28872391 30.47390045 30.28447906 29.52070618 30.28010559 C26.5760037 30.26335993 23.6319944 30.22571522 20.6875 30.1875 C18.68685887 30.17244785 16.68620697 30.15876037 14.68554688 30.14648438 C9.78988495 30.11602609 4.89571517 30.05729706 0 30 C0 20.1 0 10.2 0 0 Z " fill="#38316C" transform="translate(461,91)"/>
<path d="M0 0 C0.92515915 0.00424484 1.8503183 0.00848969 2.80351257 0.01286316 C5.74821505 0.02960882 8.69222435 0.06725353 11.63671875 0.10546875 C13.63735988 0.1205209 15.63801178 0.13420838 17.63867188 0.14648438 C22.5343338 0.17694266 27.42850358 0.23567169 32.32421875 0.29296875 C32.32421875 10.19296875 32.32421875 20.09296875 32.32421875 30.29296875 C26.45184757 30.38496412 20.58199118 30.46455202 14.70947266 30.51269531 C12.71329257 30.53277044 10.717171 30.56003664 8.72119141 30.59472656 C5.84653255 30.64342532 2.97265335 30.66597861 0.09765625 30.68359375 C-1.23394028 30.71456146 -1.23394028 30.71456146 -2.59243774 30.74615479 C-8.13025456 30.74814559 -11.29319164 30.00998914 -15.67578125 26.29296875 C-19.73208523 21.07037018 -19.44975669 15.63956733 -18.67578125 9.29296875 C-14.57271043 0.63093036 -8.73396645 -0.15145777 0 0 Z " fill="#5E54AE" transform="translate(18.67578125,90.70703125)"/>
<path d="M0 0 C4.5815323 2.17019951 6.89150061 4.43064252 9 9 C9.40390175 12.22992727 9.34933902 15.42513209 9.29296875 18.67578125 C9.28872391 19.6009404 9.28447906 20.52609955 9.28010559 21.47929382 C9.26335993 24.4239963 9.22571522 27.3680056 9.1875 30.3125 C9.17244785 32.31314113 9.15876037 34.31379303 9.14648438 36.31445312 C9.11602609 41.21011505 9.05729706 46.10428483 9 51 C-0.9 51 -10.8 51 -21 51 C-21.09199537 45.12762882 -21.17158327 39.25777243 -21.21972656 33.38525391 C-21.23980169 31.38907382 -21.26706789 29.39295225 -21.30175781 27.39697266 C-21.35045657 24.5223138 -21.37300986 21.6484346 -21.390625 18.7734375 C-21.41127014 17.88570648 -21.43191528 16.99797546 -21.45318604 16.08334351 C-21.45517684 10.54552669 -20.71702039 7.38258961 -17 3 C-11.77740143 -1.05630398 -6.34659858 -0.77397544 0 0 Z " fill="#38316B" transform="translate(412,0)"/>
<path d="M0 0 C4.5815323 2.17019951 6.89150061 4.43064252 9 9 C9.40390175 12.22992727 9.34933902 15.42513209 9.29296875 18.67578125 C9.28872391 19.6009404 9.28447906 20.52609955 9.28010559 21.47929382 C9.26335993 24.4239963 9.22571522 27.3680056 9.1875 30.3125 C9.17244785 32.31314113 9.15876037 34.31379303 9.14648438 36.31445312 C9.11602609 41.21011505 9.05729706 46.10428483 9 51 C-0.9 51 -10.8 51 -21 51 C-21.09199537 45.12762882 -21.17158327 39.25777243 -21.21972656 33.38525391 C-21.23980169 31.38907382 -21.26706789 29.39295225 -21.30175781 27.39697266 C-21.35045657 24.5223138 -21.37300986 21.6484346 -21.390625 18.7734375 C-21.41127014 17.88570648 -21.43191528 16.99797546 -21.45318604 16.08334351 C-21.45517684 10.54552669 -20.71702039 7.38258961 -17 3 C-11.77740143 -1.05630398 -6.34659858 -0.77397544 0 0 Z " fill="#38316B" transform="translate(352,0)"/>
<path d="M0 0 C4.5815323 2.17019951 6.89150061 4.43064252 9 9 C9.40390175 12.22992727 9.34933902 15.42513209 9.29296875 18.67578125 C9.28872391 19.6009404 9.28447906 20.52609955 9.28010559 21.47929382 C9.26335993 24.4239963 9.22571522 27.3680056 9.1875 30.3125 C9.17244785 32.31314113 9.15876037 34.31379303 9.14648438 36.31445312 C9.11602609 41.21011505 9.05729706 46.10428483 9 51 C-0.9 51 -10.8 51 -21 51 C-21.09199537 45.12762882 -21.17158327 39.25777243 -21.21972656 33.38525391 C-21.23980169 31.38907382 -21.26706789 29.39295225 -21.30175781 27.39697266 C-21.35045657 24.5223138 -21.37300986 21.6484346 -21.390625 18.7734375 C-21.41127014 17.88570648 -21.43191528 16.99797546 -21.45318604 16.08334351 C-21.45517684 10.54552669 -20.71702039 7.38258961 -17 3 C-11.77740143 -1.05630398 -6.34659858 -0.77397544 0 0 Z " fill="#38316B" transform="translate(292,0)"/>
<path d="M0 0 C4.5815323 2.17019951 6.89150061 4.43064252 9 9 C9.40390175 12.22992727 9.34933902 15.42513209 9.29296875 18.67578125 C9.28872391 19.6009404 9.28447906 20.52609955 9.28010559 21.47929382 C9.26335993 24.4239963 9.22571522 27.3680056 9.1875 30.3125 C9.17244785 32.31314113 9.15876037 34.31379303 9.14648438 36.31445312 C9.11602609 41.21011505 9.05729706 46.10428483 9 51 C-0.9 51 -10.8 51 -21 51 C-21.09199537 45.12762882 -21.17158327 39.25777243 -21.21972656 33.38525391 C-21.23980169 31.38907382 -21.26706789 29.39295225 -21.30175781 27.39697266 C-21.35045657 24.5223138 -21.37300986 21.6484346 -21.390625 18.7734375 C-21.41127014 17.88570648 -21.43191528 16.99797546 -21.45318604 16.08334351 C-21.45517684 10.54552669 -20.71702039 7.38258961 -17 3 C-11.77740143 -1.05630398 -6.34659858 -0.77397544 0 0 Z " fill="#5E55AE" transform="translate(232,0)"/>
<path d="M0 0 C4.5815323 2.17019951 6.89150061 4.43064252 9 9 C9.40390175 12.22992727 9.34933902 15.42513209 9.29296875 18.67578125 C9.28872391 19.6009404 9.28447906 20.52609955 9.28010559 21.47929382 C9.26335993 24.4239963 9.22571522 27.3680056 9.1875 30.3125 C9.17244785 32.31314113 9.15876037 34.31379303 9.14648438 36.31445312 C9.11602609 41.21011505 9.05729706 46.10428483 9 51 C-0.9 51 -10.8 51 -21 51 C-21.09199537 45.12762882 -21.17158327 39.25777243 -21.21972656 33.38525391 C-21.23980169 31.38907382 -21.26706789 29.39295225 -21.30175781 27.39697266 C-21.35045657 24.5223138 -21.37300986 21.6484346 -21.390625 18.7734375 C-21.41127014 17.88570648 -21.43191528 16.99797546 -21.45318604 16.08334351 C-21.45517684 10.54552669 -20.71702039 7.38258961 -17 3 C-11.77740143 -1.05630398 -6.34659858 -0.77397544 0 0 Z " fill="#5E55AE" transform="translate(172,0)"/>
<path d="M0 0 C4.5815323 2.17019951 6.89150061 4.43064252 9 9 C9.40390175 12.22992727 9.34933902 15.42513209 9.29296875 18.67578125 C9.28872391 19.6009404 9.28447906 20.52609955 9.28010559 21.47929382 C9.26335993 24.4239963 9.22571522 27.3680056 9.1875 30.3125 C9.17244785 32.31314113 9.15876037 34.31379303 9.14648438 36.31445312 C9.11602609 41.21011505 9.05729706 46.10428483 9 51 C-0.9 51 -10.8 51 -21 51 C-21.09199537 45.12762882 -21.17158327 39.25777243 -21.21972656 33.38525391 C-21.23980169 31.38907382 -21.26706789 29.39295225 -21.30175781 27.39697266 C-21.35045657 24.5223138 -21.37300986 21.6484346 -21.390625 18.7734375 C-21.41127014 17.88570648 -21.43191528 16.99797546 -21.45318604 16.08334351 C-21.45517684 10.54552669 -20.71702039 7.38258961 -17 3 C-11.77740143 -1.05630398 -6.34659858 -0.77397544 0 0 Z " fill="#5E55AE" transform="translate(112,0)"/>
<path d="M0 0 C0.66 0 1.32 0 2 0 C3.85765778 4.92727764 5.70889448 9.85690107 7.55419922 14.78881836 C8.1829684 16.4665641 8.81349302 18.14365303 9.44580078 19.82006836 C10.35390167 22.22860281 11.25568147 24.63942195 12.15625 27.05078125 C12.44060913 27.80087967 12.72496826 28.55097809 13.01794434 29.32380676 C14.14221978 32.34972338 15 34.74428721 15 38 C5.76 38 -3.48 38 -13 38 C-11.68985187 32.1043334 -10.51863424 27.2750632 -8.3984375 21.77734375 C-8.0364476 20.83091759 -8.0364476 20.83091759 -7.66714478 19.8653717 C-6.90896753 17.88709656 -6.14218393 15.91229722 -5.375 13.9375 C-4.85358826 12.58160249 -4.33275032 11.22548419 -3.8125 9.86914062 C-2.54826968 6.57685598 -1.27630808 3.28762434 0 0 Z " fill="#665CB2" transform="translate(230,234)"/>
</svg>
